<svg xmlns="http://www.w3.org/2000/svg" viewBox="0 0 1024 1024"><defs><style>.cls-1{fill:#2fac6f;}.cls-2{fill:#121c30;}.cls-3{fill:none;stroke:#2fac6f;stroke-miterlimit:10;}.cls-4{fill:#fff;}</style></defs><g id="_3" data-name="3"><path class="cls-1" d="M465.21,545.15a21,21,0,0,1-15.27-6,21.27,21.27,0,0,1,0-29.88,21,21,0,0,1,15.27-6,21.17,21.17,0,0,1,14.33,5.1,19.93,19.93,0,0,1,6.9,13H477a11.63,11.63,0,0,0-4.13-6.79,11.87,11.87,0,0,0-7.68-2.61,12.21,12.21,0,1,0,0,24.41,11.91,11.91,0,0,0,7.68-2.6A11.64,11.64,0,0,0,477,527h9.42a19.94,19.94,0,0,1-6.9,13A21.22,21.22,0,0,1,465.21,545.15Z"/><path class="cls-2" d="M527,544.43H517l-2.53-7.1H498.05l-2.52,7.1h-9.74L501,504h10.74ZM506.27,514,501,528.93h10.54Z"/><path class="cls-2" d="M531.31,504h15a14.11,14.11,0,0,1,10.14,3.92,14,14,0,0,1,0,19.72,14.11,14.11,0,0,1-10.14,3.92h-5.85v12.92h-9.11Zm9.11,19H546a4.92,4.92,0,0,0,3.64-1.49,5.48,5.48,0,0,0,0-7.45,4.88,4.88,0,0,0-3.64-1.49h-5.62Z"/><path class="cls-2" d="M574.49,544.43h-9.11V504h9.11Z"/><path class="cls-2" d="M604.86,530.22l11-26.27h11.61v40.48h-9.09V519.51L607.9,544.43h-6.22l-10.37-24.81v24.81H582.2V504h11.74Z"/><path class="cls-2" d="M672.91,544.43h-10l-2.52-7.1H644l-2.52,7.1h-9.74L646.92,504h10.75ZM652.19,514l-5.27,14.95h10.54Z"/><path class="cls-2" d="M700.81,524.06l14.33,20.37H704l-9.51-14-9.48,14H673.82l14.39-20.37L674.08,504h11.21l9.31,13.72L703.82,504h11.09Z"/><path class="cls-2" d="M520.93,564.93l4.53-11.11h1.17l4.52,11.11h-1.47l-1.32-3.35h-4.65l-1.32,3.35Zm5.1-9.38c-.5,1.38-1,2.64-1.42,3.77l-.41,1h3.68l-.42-1c-.46-1.15-.92-2.41-1.4-3.77Z"/><path class="cls-2" d="M546.05,556.76a1.52,1.52,0,0,0,.2.81,1.71,1.71,0,0,0,.54.53,3.2,3.2,0,0,0,.77.34l.93.25c.43.1.85.22,1.27.35a3.91,3.91,0,0,1,1.11.52,2.57,2.57,0,0,1,.79.88,2.82,2.82,0,0,1,.3,1.38,3.32,3.32,0,0,1-.32,1.5,2.79,2.79,0,0,1-.91,1,4,4,0,0,1-1.36.6,7.21,7.21,0,0,1-1.73.2,6.62,6.62,0,0,1-.88-.06,7.53,7.53,0,0,1-.87-.14,6,6,0,0,1-.74-.21,3.39,3.39,0,0,1-.52-.23v-1.24a4.67,4.67,0,0,0,.67.27,6.77,6.77,0,0,0,.77.22c.27,0,.53.1.81.13a5.1,5.1,0,0,0,.76,0,5.66,5.66,0,0,0,1.11-.1,2.58,2.58,0,0,0,.92-.33,1.59,1.59,0,0,0,.63-.63,2,2,0,0,0,.24-1,1.47,1.47,0,0,0-.21-.82,1.55,1.55,0,0,0-.54-.54,3.07,3.07,0,0,0-.78-.34c-.3-.09-.61-.17-.94-.25s-.85-.21-1.26-.34a3.79,3.79,0,0,1-1.11-.52,2.55,2.55,0,0,1-.78-.85,2.69,2.69,0,0,1-.29-1.34,3.17,3.17,0,0,1,.31-1.46,2.79,2.79,0,0,1,.83-1,3.46,3.46,0,0,1,1.22-.59,5.38,5.38,0,0,1,1.47-.2,7.35,7.35,0,0,1,1.66.18,7.67,7.67,0,0,1,1.4.44v1.25a9.84,9.84,0,0,0-1.42-.47,6.56,6.56,0,0,0-1.57-.19,3.63,3.63,0,0,0-1.1.14,2.07,2.07,0,0,0-.77.39,1.62,1.62,0,0,0-.46.61A2.07,2.07,0,0,0,546.05,556.76Z"/><path class="cls-2" d="M567.56,556.76a1.52,1.52,0,0,0,.19.81,1.71,1.71,0,0,0,.54.53,3.11,3.11,0,0,0,.78.34c.29.09.6.17.92.25s.85.22,1.27.35a3.79,3.79,0,0,1,1.11.52,2.57,2.57,0,0,1,.79.88,2.82,2.82,0,0,1,.31,1.38,3.19,3.19,0,0,1-.33,1.5,2.79,2.79,0,0,1-.91,1,4,4,0,0,1-1.36.6,7.21,7.21,0,0,1-1.73.2,6.62,6.62,0,0,1-.88-.06,7.53,7.53,0,0,1-.87-.14,6,6,0,0,1-.74-.21,3.39,3.39,0,0,1-.52-.23v-1.24a4.67,4.67,0,0,0,.67.27,6.77,6.77,0,0,0,.77.22c.27,0,.54.1.81.13a5.1,5.1,0,0,0,.76,0,5.66,5.66,0,0,0,1.11-.1,2.58,2.58,0,0,0,.92-.33,1.68,1.68,0,0,0,.64-.63,2.07,2.07,0,0,0,.23-1,1.47,1.47,0,0,0-.21-.82,1.55,1.55,0,0,0-.54-.54,3.07,3.07,0,0,0-.78-.34c-.3-.09-.61-.17-.94-.25s-.85-.21-1.26-.34a3.91,3.91,0,0,1-1.11-.52,2.55,2.55,0,0,1-.78-.85,2.8,2.8,0,0,1-.29-1.34,3.17,3.17,0,0,1,.31-1.46,2.79,2.79,0,0,1,.83-1,3.46,3.46,0,0,1,1.22-.59,5.38,5.38,0,0,1,1.47-.2,7.28,7.28,0,0,1,1.66.18,7.67,7.67,0,0,1,1.4.44v1.25a9.45,9.45,0,0,0-1.42-.47,6.56,6.56,0,0,0-1.57-.19,3.63,3.63,0,0,0-1.1.14,2.15,2.15,0,0,0-.77.39,1.62,1.62,0,0,0-.46.61A2.07,2.07,0,0,0,567.56,556.76Z"/><path class="cls-2" d="M589.33,563.71H595v1.22h-7V553.82h6.74V555h-5.39v3.59h4.79v1.22h-4.79Z"/><path class="cls-2" d="M613.45,564.93H612.1V555h-3.71v-1.22h8.77V555h-3.71Z"/><path class="cls-2" d="M632.11,556.76a1.43,1.43,0,0,0,.2.81,1.68,1.68,0,0,0,.53.53,3.11,3.11,0,0,0,.78.34c.29.09.6.17.92.25s.85.22,1.27.35a3.79,3.79,0,0,1,1.11.52,2.71,2.71,0,0,1,.8.88,2.82,2.82,0,0,1,.3,1.38,3.19,3.19,0,0,1-.33,1.5,2.79,2.79,0,0,1-.91,1,4,4,0,0,1-1.36.6,7.21,7.21,0,0,1-1.73.2,6.62,6.62,0,0,1-.88-.06,7.9,7.9,0,0,1-.87-.14,6,6,0,0,1-.74-.21,3.91,3.91,0,0,1-.52-.23v-1.24a4.67,4.67,0,0,0,.67.27,6.77,6.77,0,0,0,.77.22c.27,0,.54.1.81.13a5.1,5.1,0,0,0,.76,0,5.66,5.66,0,0,0,1.11-.1,2.7,2.7,0,0,0,.93-.33,1.73,1.73,0,0,0,.63-.63,2.07,2.07,0,0,0,.23-1,1.56,1.56,0,0,0-.2-.82,1.67,1.67,0,0,0-.55-.54,2.92,2.92,0,0,0-.78-.34c-.3-.09-.61-.17-.94-.25s-.85-.21-1.26-.34a4,4,0,0,1-1.11-.52,2.55,2.55,0,0,1-.78-.85,2.8,2.8,0,0,1-.29-1.34,3.17,3.17,0,0,1,.31-1.46,2.81,2.81,0,0,1,.84-1,3.41,3.41,0,0,1,1.21-.59,5.38,5.38,0,0,1,1.47-.2,7.22,7.22,0,0,1,1.66.18,8,8,0,0,1,1.41.44v1.25a10,10,0,0,0-1.43-.47,6.56,6.56,0,0,0-1.57-.19,3.63,3.63,0,0,0-1.1.14,2.23,2.23,0,0,0-.77.39,1.59,1.59,0,0,0-.45.61A2.07,2.07,0,0,0,632.11,556.76Z"/><line class="cls-3" x1="507.96" y1="559.38" x2="444.65" y2="559.38"/><line class="cls-3" x1="714.3" y1="559.38" x2="650.99" y2="559.38"/><path class="cls-1" d="M365.85,503.52l-3.32,8.68-.46,1.22H338.23c-11,0-19.86,9.29-19.86,20.69s8.91,20.68,19.86,20.68h8l-3.32,8.68-.17.45-.3.78h-4.22c-16.19,0-29.37-13.73-29.37-30.59s13.18-30.59,29.37-30.59Z"/><polygon class="cls-2" points="380.7 500.84 375.88 513.42 360.05 554.79 356.27 564.7 356.1 565.14 345.7 565.14 345.87 564.7 349.65 554.79 365.48 513.42 369.27 503.52 370.29 500.84 375.92 500.84 380.7 500.84"/><polygon class="cls-2" points="406.5 482.35 374.83 565.14 364.42 565.14 396.09 482.35 406.5 482.35"/><polygon class="cls-2" points="434.01 458.86 393.55 565.14 383.15 565.14 423.8 458.86 434.01 458.86"/><rect class="cls-2" width="1024" height="1024"/><path class="cls-1" d="M488.86,476.82,475.09,513l-1.94,5.1H374.33c-45.41,0-82.35,38.49-82.35,85.76s36.94,85.79,82.35,85.79H407.5l-13.76,36-.71,1.82-1.2,3.23h-17.5c-67.13,0-121.83-56.89-121.83-126.84S307.2,477,374.33,477Z"/><polygon class="cls-4" points="550.44 465.74 530.49 517.91 464.81 689.46 449.14 730.51 448.43 732.33 405.31 732.33 405.97 730.51 421.69 689.46 487.33 517.91 503.04 476.82 507.27 465.74 530.62 465.74 550.44 465.74"/><polygon class="cls-4" points="657.42 389.07 526.1 732.33 482.93 732.33 614.26 389.07 657.42 389.07"/><polygon class="cls-4" points="771.5 291.67 603.72 732.33 560.6 732.33 729.16 291.67 771.5 291.67"/></g></svg>