<svg xmlns="http://www.w3.org/2000/svg" viewBox="0 0 271.33 242.74"><defs><style>.cls-1{fill:#2fac6f;}.cls-2{fill:#fff;}.cls-3{fill:none;stroke:#2fac6f;stroke-miterlimit:10;}</style></defs><g id="_3" data-name="3"><path class="cls-1" d="M425.74,1005.74a20.89,20.89,0,0,1-15.27-6,21.27,21.27,0,0,1,0-29.88,20.93,20.93,0,0,1,15.27-6,21.2,21.2,0,0,1,14.32,5.1A20,20,0,0,1,447,982h-9.43a11.67,11.67,0,0,0-4.12-6.79,11.87,11.87,0,0,0-7.68-2.61,12.21,12.21,0,1,0,0,24.41,11.86,11.86,0,0,0,7.68-2.6,11.65,11.65,0,0,0,4.12-6.76H447a19.91,19.91,0,0,1-6.91,13A21.22,21.22,0,0,1,425.74,1005.74Z" transform="translate(-404.34 -838.63)"/><path class="cls-2" d="M487.51,1005h-10L475,997.92H458.57l-2.52,7.11h-9.74l15.21-40.49h10.75ZM466.8,974.57l-5.28,15h10.55Z" transform="translate(-404.34 -838.63)"/><path class="cls-2" d="M491.84,964.54h15a14.12,14.12,0,0,1,10.15,3.93,14,14,0,0,1,0,19.71,14.11,14.11,0,0,1-10.15,3.92H501V1005h-9.11Zm9.11,19h5.61a4.89,4.89,0,0,0,3.64-1.49,5.48,5.48,0,0,0,0-7.45,4.85,4.85,0,0,0-3.64-1.49H501Z" transform="translate(-404.34 -838.63)"/><path class="cls-2" d="M535,1005H525.9V964.54H535Z" transform="translate(-404.34 -838.63)"/><path class="cls-2" d="M565.39,990.81l11-26.27H588V1005h-9.08V980.1L568.42,1005H562.2l-10.37-24.82V1005h-9.11V964.54h11.75Z" transform="translate(-404.34 -838.63)"/><path class="cls-2" d="M633.43,1005h-10l-2.52-7.11H604.49L602,1005h-9.74l15.21-40.49h10.75Zm-20.71-30.46-5.28,15H618Z" transform="translate(-404.34 -838.63)"/><path class="cls-2" d="M661.34,984.65,675.66,1005H664.52L655,991l-9.49,14H634.35l14.38-20.38-14.12-20.11h11.2l9.31,13.72,9.23-13.72h11.09Z" transform="translate(-404.34 -838.63)"/><path class="cls-2" d="M422.5,1052.44v4.46h-1.35v-4.46l-4-6.64h1.48l3.22,5.39h0l3.22-5.39h1.48Z" transform="translate(-404.34 -838.63)"/><path class="cls-2" d="M433.82,1053a5,5,0,0,1-.27,1.69,3.6,3.6,0,0,1-.75,1.31,3.31,3.31,0,0,1-1.17.84,3.86,3.86,0,0,1-1.55.3,3.92,3.92,0,0,1-1.57-.3,3.44,3.44,0,0,1-1.18-.84,3.73,3.73,0,0,1-.74-1.31,5.3,5.3,0,0,1-.26-1.69,5.05,5.05,0,0,1,.27-1.7,4.06,4.06,0,0,1,.75-1.32,3.35,3.35,0,0,1,1.18-.84,3.86,3.86,0,0,1,1.55-.3,4,4,0,0,1,1.57.3,3.31,3.31,0,0,1,1.17.84,3.71,3.71,0,0,1,.74,1.32A5.32,5.32,0,0,1,433.82,1053Zm-1.34,0a4.3,4.3,0,0,0-.18-1.3,2.91,2.91,0,0,0-.5-1,2,2,0,0,0-.76-.6,2.18,2.18,0,0,0-1-.21,2.25,2.25,0,0,0-1,.21,2.07,2.07,0,0,0-.76.6,2.89,2.89,0,0,0-.49,1,4.75,4.75,0,0,0,0,2.59,2.73,2.73,0,0,0,.5,1,2.17,2.17,0,0,0,.76.59,2.23,2.23,0,0,0,1,.2,2.15,2.15,0,0,0,1.72-.79,2.91,2.91,0,0,0,.5-1A4.28,4.28,0,0,0,432.48,1053Z" transform="translate(-404.34 -838.63)"/><path class="cls-2" d="M439,1057.11a4.15,4.15,0,0,1-1.1-.13,3.07,3.07,0,0,1-.86-.38,2.47,2.47,0,0,1-.63-.57,2.94,2.94,0,0,1-.4-.74,2.7,2.7,0,0,1-.17-.65,6.26,6.26,0,0,1-.05-.78V1049h1.29v4.83a3.12,3.12,0,0,0,.17,1.09,1.58,1.58,0,0,0,.65.79,2,2,0,0,0,1.13.28,2,2,0,0,0,1.17-.31,1.71,1.71,0,0,0,.64-.85,3.17,3.17,0,0,0,.14-1V1049h1.29v4.84a5.78,5.78,0,0,1-.05.75,2.91,2.91,0,0,1-.15.63,2.5,2.5,0,0,1-.41.75,2.62,2.62,0,0,1-.64.6,3.2,3.2,0,0,1-.88.38A4.45,4.45,0,0,1,439,1057.11Z" transform="translate(-404.34 -838.63)"/><path class="cls-2" d="M449,1050.06h-.1a4.43,4.43,0,0,0-.9.09,3.13,3.13,0,0,0-.82.25,2.89,2.89,0,0,0-.7.42,2.11,2.11,0,0,0-.52.59v5.49h-1.29V1049h1l.25,1.25h0a3.17,3.17,0,0,1,.47-.57,3.23,3.23,0,0,1,.63-.47,3.67,3.67,0,0,1,.76-.31,3.58,3.58,0,0,1,.87-.11h.17l.16,0Z" transform="translate(-404.34 -838.63)"/><path class="cls-2" d="M460.52,1052.41H458v-1.22h3.89v5.37a2.79,2.79,0,0,1-.51.19l-.77.18c-.29,0-.6.1-.93.13s-.65,0-1,0a7.49,7.49,0,0,1-2.52-.39,4.94,4.94,0,0,1-1.83-1.11,4.54,4.54,0,0,1-1.12-1.73,6.32,6.32,0,0,1-.38-2.27,7,7,0,0,1,.42-2.48,5.15,5.15,0,0,1,1.21-1.9,5.42,5.42,0,0,1,1.92-1.21,6.78,6.78,0,0,1,2.47-.43c.25,0,.49,0,.73,0s.48,0,.7.08.43.08.62.13a3.2,3.2,0,0,1,.47.16v1.19a8.44,8.44,0,0,0-1.15-.28,8,8,0,0,0-1.29-.11,5.77,5.77,0,0,0-1.81.29,4.43,4.43,0,0,0-1.51.86,4.24,4.24,0,0,0-1.05,1.46,5,5,0,0,0-.39,2.06,5.42,5.42,0,0,0,.33,2,3.66,3.66,0,0,0,.91,1.39,3.75,3.75,0,0,0,1.44.8,6.14,6.14,0,0,0,1.88.27c.32,0,.64,0,.95-.05a5.89,5.89,0,0,0,.83-.15Z" transform="translate(-404.34 -838.63)"/><path class="cls-2" d="M469.06,1056h0a2.39,2.39,0,0,1-.39.39,3.12,3.12,0,0,1-.56.35,3,3,0,0,1-.69.25,3.38,3.38,0,0,1-.8.09,3.21,3.21,0,0,1-1.05-.17,2.29,2.29,0,0,1-.82-.5,2.12,2.12,0,0,1-.53-.8,2.8,2.8,0,0,1-.19-1.07,2.49,2.49,0,0,1,.21-1,2.22,2.22,0,0,1,.59-.79,2.63,2.63,0,0,1,.92-.5,3.65,3.65,0,0,1,1.18-.18,7.87,7.87,0,0,1,1.14.11,6.21,6.21,0,0,1,.93.25h0v-.55a3.32,3.32,0,0,0,0-.57,1.44,1.44,0,0,0-.83-1.1,2.71,2.71,0,0,0-1.28-.26,5.67,5.67,0,0,0-1.12.11,7.46,7.46,0,0,0-1.05.31v-1.08a4.7,4.7,0,0,1,.47-.18,4.14,4.14,0,0,1,.56-.15,5.93,5.93,0,0,1,.63-.1l.67,0a4,4,0,0,1,1.95.42,2.5,2.5,0,0,1,1.09,1.12,1.93,1.93,0,0,1,.18.59,3.73,3.73,0,0,1,.06.7v5.26H469.2Zm-.07-2.59c-.24-.07-.52-.13-.84-.19a7.09,7.09,0,0,0-1.08-.1,2.11,2.11,0,0,0-1.28.35,1.25,1.25,0,0,0-.46,1.07,1.59,1.59,0,0,0,.12.64,1.21,1.21,0,0,0,.31.45,1.42,1.42,0,0,0,.48.27,2.27,2.27,0,0,0,.59.08,2.35,2.35,0,0,0,.77-.12,3.06,3.06,0,0,0,.63-.28,3.32,3.32,0,0,0,.48-.33l.28-.26Z" transform="translate(-404.34 -838.63)"/><path class="cls-2" d="M476.93,1056.92a3.24,3.24,0,0,1-.51.12,6,6,0,0,1-.81.07,3.43,3.43,0,0,1-1.08-.15,2.09,2.09,0,0,1-.76-.44,1.92,1.92,0,0,1-.45-.7,2.57,2.57,0,0,1-.15-.9v-4.8h-1.52V1049h1.52v-2.16h1.28V1049h2.36v1.1h-2.36v4.6a1.7,1.7,0,0,0,.08.51,1,1,0,0,0,.69.66,1.72,1.72,0,0,0,.64.1,3.44,3.44,0,0,0,.54,0l.53-.11Z" transform="translate(-404.34 -838.63)"/><path class="cls-2" d="M482.41,1056a5.88,5.88,0,0,0,2.22-.4v1.07a4.06,4.06,0,0,1-1.05.33,7,7,0,0,1-1.33.12,5.41,5.41,0,0,1-1.59-.22,3.22,3.22,0,0,1-1.29-.69,3.3,3.3,0,0,1-.85-1.26,5.19,5.19,0,0,1-.31-1.87,5.33,5.33,0,0,1,.3-1.88,4,4,0,0,1,.8-1.32,3.33,3.33,0,0,1,1.14-.8,3.64,3.64,0,0,1,1.35-.26,3.41,3.41,0,0,1,1.24.22,2.61,2.61,0,0,1,1,.69,3.25,3.25,0,0,1,.67,1.22,5.92,5.92,0,0,1,.24,1.79v.49h-5.45a3.27,3.27,0,0,0,.23,1.29,2.26,2.26,0,0,0,.62.85,2.42,2.42,0,0,0,.93.48A4.14,4.14,0,0,0,482.41,1056Zm-.68-6.08a1.89,1.89,0,0,0-.82.18,2,2,0,0,0-.67.47,2.24,2.24,0,0,0-.46.7,2.79,2.79,0,0,0-.22.86h4a3,3,0,0,0-.12-.87,2,2,0,0,0-.36-.7,1.67,1.67,0,0,0-.58-.47A1.81,1.81,0,0,0,481.73,1049.91Z" transform="translate(-404.34 -838.63)"/><path class="cls-2" d="M491.82,1050.32c-.16.72-.32,1.35-.47,1.87l-1.28,4.71h-1.3l-2.56-7.88h1.29l1.47,4.91c.2.65.34,1.17.44,1.55h0c.09-.4.23-1,.44-1.72l1.31-4.74h1.29l1.44,4.74c.19.64.35,1.21.47,1.72h0c.13-.51.28-1,.44-1.55l1.47-4.91h1.29L495,1056.9h-1.35l-1.31-4.71c-.16-.55-.32-1.18-.49-1.87Z" transform="translate(-404.34 -838.63)"/><path class="cls-2" d="M503.85,1056h0a2.48,2.48,0,0,1-.4.39,2.72,2.72,0,0,1-.55.35,3,3,0,0,1-.69.25,3.44,3.44,0,0,1-.8.09,3.21,3.21,0,0,1-1.05-.17,2.21,2.21,0,0,1-.82-.5,2.26,2.26,0,0,1-.54-.8,3,3,0,0,1-.19-1.07,2.35,2.35,0,0,1,.22-1,2.11,2.11,0,0,1,.59-.79,2.63,2.63,0,0,1,.92-.5,3.65,3.65,0,0,1,1.18-.18,7.87,7.87,0,0,1,1.14.11,6.21,6.21,0,0,1,.93.25h0v-.55a3.32,3.32,0,0,0,0-.57,1.44,1.44,0,0,0-.83-1.1,2.71,2.71,0,0,0-1.28-.26,5.85,5.85,0,0,0-1.13.11,8.34,8.34,0,0,0-1.05.31v-1.08l.47-.18a4.74,4.74,0,0,1,.57-.15,5.93,5.93,0,0,1,.63-.1c.22,0,.45,0,.67,0a4,4,0,0,1,1.95.42,2.5,2.5,0,0,1,1.09,1.12,1.93,1.93,0,0,1,.18.59,3.73,3.73,0,0,1,.06.7v5.26H504Zm-.07-2.59c-.24-.07-.52-.13-.84-.19a7.09,7.09,0,0,0-1.08-.1,2.11,2.11,0,0,0-1.28.35,1.25,1.25,0,0,0-.46,1.07,1.79,1.79,0,0,0,.11.64,1.36,1.36,0,0,0,.32.45,1.42,1.42,0,0,0,.48.27,2.27,2.27,0,0,0,.59.08,2.39,2.39,0,0,0,.77-.12,3.06,3.06,0,0,0,.63-.28,3.18,3.18,0,0,0,.47-.33l.29-.26Z" transform="translate(-404.34 -838.63)"/><path class="cls-2" d="M506.56,1049h1.29l2.45,6.18h.05l2.51-6.18h1.29l-4.89,11.74H508l1.68-4Z" transform="translate(-404.34 -838.63)"/><path class="cls-2" d="M523.27,1056.92a3.24,3.24,0,0,1-.51.12,5.68,5.68,0,0,1-.81.07,3.43,3.43,0,0,1-1.08-.15,2.17,2.17,0,0,1-.76-.44,1.92,1.92,0,0,1-.45-.7,2.57,2.57,0,0,1-.15-.9v-4.8H518V1049h1.52v-2.16h1.29V1049h2.35v1.1H520.8v4.6a1.7,1.7,0,0,0,.07.51,1.28,1.28,0,0,0,.25.4,1.2,1.2,0,0,0,.44.26,1.76,1.76,0,0,0,.64.1,3.44,3.44,0,0,0,.54,0l.53-.11Z" transform="translate(-404.34 -838.63)"/><path class="cls-2" d="M532,1053a5,5,0,0,1-.26,1.69A3.91,3.91,0,0,1,531,1056a3.44,3.44,0,0,1-1.18.84,3.81,3.81,0,0,1-1.54.3,3.89,3.89,0,0,1-1.57-.3,3.26,3.26,0,0,1-1.18-.84,3.6,3.6,0,0,1-.75-1.31,5.31,5.31,0,0,1-.25-1.69,5.06,5.06,0,0,1,.26-1.7,4.06,4.06,0,0,1,.75-1.32,3.44,3.44,0,0,1,1.18-.84,3.86,3.86,0,0,1,1.55-.3,4,4,0,0,1,1.57.3,3.35,3.35,0,0,1,1.18.84,4,4,0,0,1,.74,1.32A5.33,5.33,0,0,1,532,1053Zm-1.34,0a4.3,4.3,0,0,0-.18-1.3,2.73,2.73,0,0,0-.5-1,1.92,1.92,0,0,0-.76-.6,2.3,2.3,0,0,0-1.92,0,1.92,1.92,0,0,0-.76.6,2.73,2.73,0,0,0-.5,1,4.75,4.75,0,0,0,0,2.59,2.91,2.91,0,0,0,.5,1,2.21,2.21,0,0,0,.77.59,2.4,2.4,0,0,0,1.92,0,2.14,2.14,0,0,0,.75-.59,2.73,2.73,0,0,0,.5-1A4.28,4.28,0,0,0,530.7,1053Z" transform="translate(-404.34 -838.63)"/><path class="cls-2" d="M544.25,1052.41h-2.54v-1.22h3.89v5.37a2.79,2.79,0,0,1-.51.19l-.77.18c-.29,0-.6.1-.93.13s-.65,0-1,0a7.49,7.49,0,0,1-2.52-.39,4.94,4.94,0,0,1-1.83-1.11,4.54,4.54,0,0,1-1.12-1.73,6.32,6.32,0,0,1-.38-2.27,7,7,0,0,1,.42-2.48,5.15,5.15,0,0,1,1.21-1.9,5.42,5.42,0,0,1,1.92-1.21,6.78,6.78,0,0,1,2.47-.43c.25,0,.49,0,.73,0s.48,0,.7.08.43.08.62.13a3.2,3.2,0,0,1,.47.16v1.19a8.44,8.44,0,0,0-1.15-.28,8,8,0,0,0-1.29-.11,5.77,5.77,0,0,0-1.81.29,4.43,4.43,0,0,0-1.51.86,4.24,4.24,0,0,0-1.05,1.46,5,5,0,0,0-.39,2.06,5.42,5.42,0,0,0,.33,2,3.66,3.66,0,0,0,.91,1.39,3.75,3.75,0,0,0,1.44.8,6.14,6.14,0,0,0,1.88.27c.32,0,.64,0,.95-.05a5.89,5.89,0,0,0,.83-.15Z" transform="translate(-404.34 -838.63)"/><path class="cls-2" d="M548.25,1056.9v-12h1.29v12Z" transform="translate(-404.34 -838.63)"/><path class="cls-2" d="M559.15,1053a5,5,0,0,1-.27,1.69,3.91,3.91,0,0,1-.75,1.31,3.35,3.35,0,0,1-1.18.84,3.81,3.81,0,0,1-1.54.3,3.89,3.89,0,0,1-1.57-.3,3.35,3.35,0,0,1-1.18-.84,3.58,3.58,0,0,1-.74-1.31,5,5,0,0,1-.26-1.69,5.32,5.32,0,0,1,.26-1.7,3.91,3.91,0,0,1,.76-1.32,3.31,3.31,0,0,1,1.17-.84,4.21,4.21,0,0,1,3.12,0,3.26,3.26,0,0,1,1.18.84,3.87,3.87,0,0,1,.74,1.32A5.32,5.32,0,0,1,559.15,1053Zm-1.35,0a4.3,4.3,0,0,0-.18-1.3,2.73,2.73,0,0,0-.5-1,1.92,1.92,0,0,0-.76-.6,2.3,2.3,0,0,0-1.92,0,2,2,0,0,0-.76.6,2.91,2.91,0,0,0-.5,1,4.75,4.75,0,0,0,0,2.59,2.91,2.91,0,0,0,.5,1,2.21,2.21,0,0,0,.77.59,2.4,2.4,0,0,0,1.92,0,2.14,2.14,0,0,0,.75-.59,2.73,2.73,0,0,0,.5-1A4.28,4.28,0,0,0,557.8,1053Z" transform="translate(-404.34 -838.63)"/><path class="cls-2" d="M568.25,1052.83a5.51,5.51,0,0,1-.3,1.91,4,4,0,0,1-.79,1.33,3.07,3.07,0,0,1-1.12.78,3.43,3.43,0,0,1-1.3.26,2.65,2.65,0,0,1-.89-.13,2.53,2.53,0,0,1-.66-.31,2.33,2.33,0,0,1-.43-.36,2.8,2.8,0,0,1-.23-.29h0l-.28.88h-1v-12h1.29v4.88h0a3.08,3.08,0,0,1,1-.7,3.13,3.13,0,0,1,1.29-.25,3.8,3.8,0,0,1,.72.07,3.26,3.26,0,0,1,.76.26,3.53,3.53,0,0,1,.73.48,3.21,3.21,0,0,1,.61.74,3.78,3.78,0,0,1,.42,1.06A5.42,5.42,0,0,1,568.25,1052.83Zm-1.34.1a4.59,4.59,0,0,0-.22-1.53,2.45,2.45,0,0,0-.57-.91,1.84,1.84,0,0,0-.73-.45,2.36,2.36,0,0,0-.78-.13,2.7,2.7,0,0,0-1.13.25,3.38,3.38,0,0,0-.93.65v4.13l.3.34a2.81,2.81,0,0,0,.45.35,2.5,2.5,0,0,0,.57.27,2,2,0,0,0,.7.11,2.15,2.15,0,0,0,1-.22,2,2,0,0,0,.73-.64,2.89,2.89,0,0,0,.45-1A4.92,4.92,0,0,0,566.91,1052.93Z" transform="translate(-404.34 -838.63)"/><path class="cls-2" d="M574.9,1056h0a3,3,0,0,1-.4.39,2.81,2.81,0,0,1-.56.35,3,3,0,0,1-.69.25,3.35,3.35,0,0,1-.79.09,3.12,3.12,0,0,1-1-.17,2.25,2.25,0,0,1-.83-.5,2.38,2.38,0,0,1-.53-.8,2.8,2.8,0,0,1-.19-1.07,2.49,2.49,0,0,1,.21-1,2.22,2.22,0,0,1,.59-.79,2.72,2.72,0,0,1,.92-.5,3.7,3.7,0,0,1,1.18-.18,7.87,7.87,0,0,1,1.14.11,6.21,6.21,0,0,1,.93.25h0v-.55a3.32,3.32,0,0,0,0-.57,1.42,1.42,0,0,0-.14-.44,1.64,1.64,0,0,0-.69-.66,2.69,2.69,0,0,0-1.28-.26,5.75,5.75,0,0,0-1.12.11,8.34,8.34,0,0,0-1,.31v-1.08a5,5,0,0,1,1-.33,5.93,5.93,0,0,1,.63-.1l.66,0a4,4,0,0,1,2,.42,2.55,2.55,0,0,1,1.09,1.12,2.71,2.71,0,0,1,.18.59,4.9,4.9,0,0,1,0,.7v5.26H575Zm-.07-2.59a7.72,7.72,0,0,0-.84-.19,6.83,6.83,0,0,0-1.07-.1,2.07,2.07,0,0,0-1.28.35,1.25,1.25,0,0,0-.47,1.07,1.59,1.59,0,0,0,.12.64,1.23,1.23,0,0,0,.32.45,1.25,1.25,0,0,0,.48.27,2.21,2.21,0,0,0,.59.08,2.43,2.43,0,0,0,.77-.12,3.63,3.63,0,0,0,.63-.28,3.82,3.82,0,0,0,.47-.33l.28-.26Z" transform="translate(-404.34 -838.63)"/><path class="cls-2" d="M578.69,1056.9v-12H580v12Z" transform="translate(-404.34 -838.63)"/><path class="cls-2" d="M587.48,1052.3v4.6h-1.36v-11.1H589a11.08,11.08,0,0,1,1.24,0,5.94,5.94,0,0,1,.93.17,3.34,3.34,0,0,1,1.78,1.07,2.93,2.93,0,0,1,.61,1.9,3,3,0,0,1-.22,1.2,2.66,2.66,0,0,1-.6.93,3.19,3.19,0,0,1-.94.64,5.27,5.27,0,0,1-1.2.36v0l3.28,4.75h-1.35l-3.42-4.6Zm0-5.28v4.06h1.33c.42,0,.77,0,1.07,0a4.15,4.15,0,0,0,.78-.15,2.1,2.1,0,0,0,1.09-.69,1.85,1.85,0,0,0,.38-1.23,1.74,1.74,0,0,0-.36-1.15,2,2,0,0,0-1-.63,3.34,3.34,0,0,0-.71-.13,10.42,10.42,0,0,0-1.06,0Z" transform="translate(-404.34 -838.63)"/><path class="cls-2" d="M599.43,1056a7,7,0,0,0,1.17-.1,6.9,6.9,0,0,0,1-.3v1.07a4.33,4.33,0,0,1-1,.33,7.11,7.11,0,0,1-1.34.12,5.5,5.5,0,0,1-1.59-.22,3.24,3.24,0,0,1-1.28-.69,3.19,3.19,0,0,1-.85-1.26,5,5,0,0,1-.31-1.87,5.33,5.33,0,0,1,.3-1.88,4.1,4.1,0,0,1,.79-1.32,3.33,3.33,0,0,1,1.14-.8,3.72,3.72,0,0,1,1.35-.26,3.33,3.33,0,0,1,1.24.22,2.57,2.57,0,0,1,1,.69,3.55,3.55,0,0,1,.67,1.22,5.92,5.92,0,0,1,.24,1.79v.17s0,.16,0,.32h-5.44a3.1,3.1,0,0,0,.23,1.29,2.26,2.26,0,0,0,.62.85,2.45,2.45,0,0,0,.92.48A4.26,4.26,0,0,0,599.43,1056Zm-.68-6.08a1.94,1.94,0,0,0-.83.18,2.08,2.08,0,0,0-.67.47,2.43,2.43,0,0,0-.46.7,2.79,2.79,0,0,0-.22.86h4a3,3,0,0,0-.12-.87,2.21,2.21,0,0,0-.36-.7,1.77,1.77,0,0,0-.58-.47A1.85,1.85,0,0,0,598.75,1049.91Z" transform="translate(-404.34 -838.63)"/><path class="cls-2" d="M608.76,1056h0a3,3,0,0,1-.4.39,2.81,2.81,0,0,1-.56.35,3,3,0,0,1-.69.25,3.35,3.35,0,0,1-.79.09,3.12,3.12,0,0,1-1-.17,2.19,2.19,0,0,1-1.36-1.3,2.8,2.8,0,0,1-.19-1.07,2.49,2.49,0,0,1,.21-1,2.22,2.22,0,0,1,.59-.79,2.72,2.72,0,0,1,.92-.5,3.7,3.7,0,0,1,1.18-.18,7.87,7.87,0,0,1,1.14.11,6.21,6.21,0,0,1,.93.25h0v-.55a3.32,3.32,0,0,0,0-.57,1.42,1.42,0,0,0-.14-.44,1.64,1.64,0,0,0-.69-.66,2.69,2.69,0,0,0-1.28-.26,5.67,5.67,0,0,0-1.12.11,8.34,8.34,0,0,0-1,.31v-1.08a5,5,0,0,1,1-.33,5.55,5.55,0,0,1,.63-.1l.66,0a4,4,0,0,1,2,.42,2.55,2.55,0,0,1,1.09,1.12,2.71,2.71,0,0,1,.18.59,4.9,4.9,0,0,1,.05.7v5.26H608.9Zm-.07-2.59a8.31,8.31,0,0,0-.84-.19,7,7,0,0,0-1.07-.1,2.07,2.07,0,0,0-1.28.35,1.25,1.25,0,0,0-.47,1.07,1.59,1.59,0,0,0,.12.64,1.23,1.23,0,0,0,.32.45,1.25,1.25,0,0,0,.48.27,2.21,2.21,0,0,0,.59.08,2.33,2.33,0,0,0,.76-.12,3.43,3.43,0,0,0,.64-.28,3.82,3.82,0,0,0,.47-.33l.28-.26Z" transform="translate(-404.34 -838.63)"/><path class="cls-2" d="M612.55,1056.9v-12h1.29v12Z" transform="translate(-404.34 -838.63)"/><path class="cls-2" d="M618.11,1056.9l4.53-11.1h1.17l4.52,11.1h-1.47l-1.32-3.34h-4.65l-1.32,3.34Zm5.1-9.38c-.5,1.38-1,2.64-1.42,3.77l-.41,1h3.68l-.42-1c-.46-1.15-.92-2.41-1.4-3.77Z" transform="translate(-404.34 -838.63)"/><path class="cls-2" d="M630.79,1051.12a1,1,0,0,0,.14.53.91.91,0,0,0,.37.33,2,2,0,0,0,.53.21l.63.16a7,7,0,0,1,.85.22,2.49,2.49,0,0,1,.73.36,1.66,1.66,0,0,1,.54.65,2.32,2.32,0,0,1,.21,1.06,2.36,2.36,0,0,1-.23,1.06,2.14,2.14,0,0,1-.66.77,3.05,3.05,0,0,1-1,.48,4.77,4.77,0,0,1-1.3.16,6.26,6.26,0,0,1-.78,0c-.23,0-.44-.07-.62-.11a4.17,4.17,0,0,1-.46-.15,2,2,0,0,1-.32-.14v-1.08a7.85,7.85,0,0,0,1,.32,4.37,4.37,0,0,0,1.06.11,3.4,3.4,0,0,0,.82-.08,2.19,2.19,0,0,0,.64-.24,1.2,1.2,0,0,0,.4-.41,1.05,1.05,0,0,0,.15-.57,1.15,1.15,0,0,0-.13-.55,1.1,1.1,0,0,0-.36-.35,1.79,1.79,0,0,0-.5-.24l-.61-.16c-.28-.06-.56-.13-.85-.22a2.84,2.84,0,0,1-.77-.35,1.6,1.6,0,0,1-.57-.61,2,2,0,0,1-.21-1,2.45,2.45,0,0,1,.22-1.08,2.13,2.13,0,0,1,.61-.75,2.62,2.62,0,0,1,.88-.45,3.79,3.79,0,0,1,1.07-.15,5.8,5.8,0,0,1,1.22.12,6.79,6.79,0,0,1,1,.32v1.09a9.4,9.4,0,0,0-1-.31,4.91,4.91,0,0,0-1-.13,2.75,2.75,0,0,0-.76.1,1.4,1.4,0,0,0-.52.25.91.91,0,0,0-.3.38A1.3,1.3,0,0,0,630.79,1051.12Z" transform="translate(-404.34 -838.63)"/><path class="cls-2" d="M637.66,1051.12a1,1,0,0,0,.14.53,1,1,0,0,0,.37.33,1.9,1.9,0,0,0,.54.21l.62.16a7,7,0,0,1,.85.22,2.49,2.49,0,0,1,.73.36,1.68,1.68,0,0,1,.55.65,2.47,2.47,0,0,1,.2,1.06,2.24,2.24,0,0,1-.23,1.06,2,2,0,0,1-.65.77,3.11,3.11,0,0,1-1,.48,4.75,4.75,0,0,1-1.29.16,6.3,6.3,0,0,1-.79,0c-.23,0-.44-.07-.62-.11l-.46-.15a1.86,1.86,0,0,1-.31-.14v-1.08a7.2,7.2,0,0,0,1,.32,4.48,4.48,0,0,0,1.06.11,3.54,3.54,0,0,0,.83-.08,2.23,2.23,0,0,0,.63-.24,1.24,1.24,0,0,0,.41-.41,1.15,1.15,0,0,0,.14-.57,1,1,0,0,0-.13-.55,1.17,1.17,0,0,0-.35-.35,2,2,0,0,0-.51-.24c-.19-.06-.4-.11-.61-.16a8.67,8.67,0,0,1-.84-.22,2.77,2.77,0,0,1-.78-.35,1.76,1.76,0,0,1-.57-.61,2,2,0,0,1-.21-1,2.45,2.45,0,0,1,.22-1.08,2.13,2.13,0,0,1,.61-.75,2.58,2.58,0,0,1,.89-.45,3.69,3.69,0,0,1,1.07-.15,5.77,5.77,0,0,1,1.21.12,6.13,6.13,0,0,1,1,.32v1.09a8.57,8.57,0,0,0-1-.31,5.09,5.09,0,0,0-1-.13,2.75,2.75,0,0,0-.76.1,1.48,1.48,0,0,0-.52.25,1,1,0,0,0-.29.38A1.13,1.13,0,0,0,637.66,1051.12Z" transform="translate(-404.34 -838.63)"/><path class="cls-2" d="M647.36,1056a6.87,6.87,0,0,0,1.16-.1,6.3,6.3,0,0,0,1.05-.3v1.07a4.11,4.11,0,0,1-1,.33,7.11,7.11,0,0,1-1.34.12,5.5,5.5,0,0,1-1.59-.22,3.24,3.24,0,0,1-1.28-.69,3.21,3.21,0,0,1-.86-1.26,5.2,5.2,0,0,1-.3-1.87,5.33,5.33,0,0,1,.3-1.88,3.93,3.93,0,0,1,.79-1.32,3.33,3.33,0,0,1,1.14-.8,3.64,3.64,0,0,1,1.35-.26,3.37,3.37,0,0,1,1.24.22,2.65,2.65,0,0,1,1,.69,3.55,3.55,0,0,1,.67,1.22,5.92,5.92,0,0,1,.24,1.79v.17s0,.16,0,.32h-5.44a3.28,3.28,0,0,0,.22,1.29,2.28,2.28,0,0,0,.63.85,2.45,2.45,0,0,0,.92.48A4.26,4.26,0,0,0,647.36,1056Zm-.68-6.08a1.94,1.94,0,0,0-.83.18,2.08,2.08,0,0,0-.67.47,2.43,2.43,0,0,0-.46.7,2.79,2.79,0,0,0-.22.86h4a3,3,0,0,0-.12-.87,2.43,2.43,0,0,0-.36-.7,1.77,1.77,0,0,0-.58-.47A1.85,1.85,0,0,0,646.68,1049.91Z" transform="translate(-404.34 -838.63)"/><path class="cls-2" d="M656.23,1056.92a3.24,3.24,0,0,1-.51.12,5.68,5.68,0,0,1-.81.07,3.52,3.52,0,0,1-1.08-.15,2.17,2.17,0,0,1-.76-.44,1.92,1.92,0,0,1-.45-.7,2.57,2.57,0,0,1-.15-.9v-4.8H651V1049h1.52v-2.16h1.29V1049h2.35v1.1h-2.35v4.6a1.44,1.44,0,0,0,.08.51,1.1,1.1,0,0,0,.24.4,1.2,1.2,0,0,0,.44.26,1.76,1.76,0,0,0,.64.1,3.44,3.44,0,0,0,.54,0l.53-.11Z" transform="translate(-404.34 -838.63)"/><path class="cls-2" d="M658.9,1051.12a1,1,0,0,0,.13.53,1.06,1.06,0,0,0,.37.33,2.17,2.17,0,0,0,.54.21l.63.16a6.42,6.42,0,0,1,.84.22,2.54,2.54,0,0,1,.74.36,1.75,1.75,0,0,1,.54.65,2.32,2.32,0,0,1,.21,1.06,2.36,2.36,0,0,1-.23,1.06,2.14,2.14,0,0,1-.66.77,3.05,3.05,0,0,1-1,.48,4.87,4.87,0,0,1-1.3.16,6,6,0,0,1-.78,0c-.24,0-.45-.07-.63-.11l-.46-.15a2.33,2.33,0,0,1-.31-.14v-1.08a7.33,7.33,0,0,0,1,.32,4.37,4.37,0,0,0,1.06.11,3.46,3.46,0,0,0,.82-.08,2,2,0,0,0,.63-.24,1.24,1.24,0,0,0,.41-.41,1.15,1.15,0,0,0,.14-.57,1,1,0,0,0-.13-.55,1.06,1.06,0,0,0-.35-.35,2,2,0,0,0-.51-.24l-.6-.16c-.28-.06-.56-.13-.85-.22a3.05,3.05,0,0,1-.78-.35,1.65,1.65,0,0,1-.56-.61,1.91,1.91,0,0,1-.22-1,2.45,2.45,0,0,1,.23-1.08,2.1,2.1,0,0,1,.6-.75,2.67,2.67,0,0,1,.89-.45,3.74,3.74,0,0,1,1.07-.15,5.87,5.87,0,0,1,1.22.12,6.31,6.31,0,0,1,1,.32v1.09a8.57,8.57,0,0,0-1-.31,4.92,4.92,0,0,0-1-.13,2.8,2.8,0,0,0-.76.1,1.35,1.35,0,0,0-.51.25.91.91,0,0,0-.3.38A1.3,1.3,0,0,0,658.9,1051.12Z" transform="translate(-404.34 -838.63)"/><path class="cls-2" d="M480.46,1071.53a6,6,0,0,1-.41,2.18,6.4,6.4,0,0,1-1.05,1.73l.66.69.56.57.39.41.2.19h-1.64l-.32-.32-.72-.73a6.39,6.39,0,0,1-1.74.94,5.86,5.86,0,0,1-1.89.32,4.29,4.29,0,0,1-1.56-.25,3,3,0,0,1-1.07-.65,2.55,2.55,0,0,1-.61-.93,3,3,0,0,1-.19-1.06,3.1,3.1,0,0,1,.19-1.14,2.94,2.94,0,0,1,.5-.86,4,4,0,0,1,.74-.68c.27-.19.56-.37.86-.54l-.63-.63a5.29,5.29,0,0,1-.51-.66,2.73,2.73,0,0,1-.34-.71,2.49,2.49,0,0,1-.13-.83,2.53,2.53,0,0,1,.22-1.09,2.28,2.28,0,0,1,.63-.81,2.89,2.89,0,0,1,1-.51,4.44,4.44,0,0,1,1.25-.17,4.1,4.1,0,0,1,1.18.16,2.84,2.84,0,0,1,.94.46,2.19,2.19,0,0,1,.87,1.83,2.5,2.5,0,0,1-.22,1.09,3,3,0,0,1-.57.84,4.81,4.81,0,0,1-.81.67c-.31.2-.62.38-.95.56l.62.63.72.75.78.8c.26.27.53.54.79.82a4.31,4.31,0,0,0,.67-1.32,5.74,5.74,0,0,0,.27-1.75Zm-6,4.88a4,4,0,0,0,.66-.05,5.32,5.32,0,0,0,.72-.17,6.26,6.26,0,0,0,.73-.3,4.39,4.39,0,0,0,.71-.44l-.82-.84-.85-.87-.8-.82-.69-.71a5.72,5.72,0,0,0-.68.45,3.39,3.39,0,0,0-.55.51,2,2,0,0,0-.38.61,1.92,1.92,0,0,0-.13.74,2.12,2.12,0,0,0,.12.71,1.65,1.65,0,0,0,.38.6,1.89,1.89,0,0,0,.65.43A2.63,2.63,0,0,0,474.5,1076.41Zm-1.4-7.84a1.81,1.81,0,0,0,.09.58,2.27,2.27,0,0,0,.27.54,4.06,4.06,0,0,0,.43.54l.59.6c.27-.14.52-.28.76-.43a4.69,4.69,0,0,0,.64-.49,2.28,2.28,0,0,0,.43-.6,1.81,1.81,0,0,0,.16-.76,1.62,1.62,0,0,0-.13-.66,1.23,1.23,0,0,0-.35-.46,1.32,1.32,0,0,0-.53-.26,2.5,2.5,0,0,0-.69-.09,1.81,1.81,0,0,0-1.23.39A1.38,1.38,0,0,0,473.1,1068.57Z" transform="translate(-404.34 -838.63)"/><path class="cls-2" d="M495.43,1071.7a6.75,6.75,0,0,1-.24,1.83,5.06,5.06,0,0,1-.72,1.54,4.9,4.9,0,0,1-1.22,1.18,5.7,5.7,0,0,1-1.69.77,6.34,6.34,0,0,1-1.21.22c-.43,0-.9.06-1.4.06h-2.51v-11.1H489c.5,0,1,0,1.4.06a6.24,6.24,0,0,1,1.2.22,6,6,0,0,1,1.7.76,4.74,4.74,0,0,1,1.2,1.16,5,5,0,0,1,.72,1.5A6.93,6.93,0,0,1,495.43,1071.7Zm-1.34,0a4.42,4.42,0,0,0-.71-2.6,3.83,3.83,0,0,0-2-1.41,5.17,5.17,0,0,0-1.12-.22c-.42,0-.89,0-1.41,0h-1v8.66h1q.78,0,1.41-.06a5.87,5.87,0,0,0,1.12-.21,3.73,3.73,0,0,0,2-1.45A4.66,4.66,0,0,0,494.09,1071.7Z" transform="translate(-404.34 -838.63)"/><path class="cls-2" d="M497.72,1067.58v-1.43H499v1.43Zm0,9.72v-7.88H499v7.88Z" transform="translate(-404.34 -838.63)"/><path class="cls-2" d="M504.67,1069.21a2.71,2.71,0,0,1,1.55.44,2.5,2.5,0,0,1,.44.37,1.68,1.68,0,0,1,.22.29h0l.27-.89h1v8.35a3.89,3.89,0,0,1-.3,1.59,3,3,0,0,1-.84,1.12,3.56,3.56,0,0,1-1.3.67,5.84,5.84,0,0,1-1.68.22,6.47,6.47,0,0,1-1.39-.14,3.54,3.54,0,0,1-1-.33v-1.08a4.37,4.37,0,0,0,.54.19,4.92,4.92,0,0,0,.55.14,5.41,5.41,0,0,0,.58.07,6.32,6.32,0,0,0,.65,0,3.13,3.13,0,0,0,2.12-.65,2.46,2.46,0,0,0,.74-2v-1.06h0a2.64,2.64,0,0,1-1,.7,3.21,3.21,0,0,1-1.28.24,4.6,4.6,0,0,1-.71-.07,3.33,3.33,0,0,1-.77-.26,3.92,3.92,0,0,1-.73-.47,3,3,0,0,1-.61-.74,4.19,4.19,0,0,1-.43-1,5.34,5.34,0,0,1-.16-1.4,5.53,5.53,0,0,1,.3-1.92,4,4,0,0,1,.79-1.34,3.22,3.22,0,0,1,1.12-.79A3.43,3.43,0,0,1,504.67,1069.21Zm-2.16,4.2a4.33,4.33,0,0,0,.22,1.52,2.5,2.5,0,0,0,.57.92,1.93,1.93,0,0,0,.75.44,2.73,2.73,0,0,0,.77.12,2.65,2.65,0,0,0,1.12-.24,3,3,0,0,0,.92-.65v-4.13a2.7,2.7,0,0,0-.3-.34,2.26,2.26,0,0,0-.44-.35,2.39,2.39,0,0,0-.58-.27,2,2,0,0,0-.7-.12,2.18,2.18,0,0,0-1,.23,2,2,0,0,0-.73.64,2.8,2.8,0,0,0-.45,1A5.46,5.46,0,0,0,502.51,1073.41Z" transform="translate(-404.34 -838.63)"/><path class="cls-2" d="M510.69,1067.58v-1.43H512v1.43Zm0,9.72v-7.88H512v7.88Z" transform="translate(-404.34 -838.63)"/><path class="cls-2" d="M518.74,1077.32a3.35,3.35,0,0,1-.5.12,6,6,0,0,1-.82.07,3.52,3.52,0,0,1-1.08-.15,2.27,2.27,0,0,1-.76-.44,1.84,1.84,0,0,1-.45-.7,2.57,2.57,0,0,1-.15-.9v-4.8h-1.52v-1.1H515v-2.16h1.29v2.16h2.36v1.1h-2.36v4.6a1.44,1.44,0,0,0,.08.51,1,1,0,0,0,.25.4,1.08,1.08,0,0,0,.43.26,1.76,1.76,0,0,0,.64.1,3.44,3.44,0,0,0,.54,0c.2,0,.37-.07.53-.11Z" transform="translate(-404.34 -838.63)"/><path class="cls-2" d="M525.1,1076.43h0a3,3,0,0,1-.4.39,2.81,2.81,0,0,1-.56.35,3,3,0,0,1-.69.25,3.35,3.35,0,0,1-.79.09,3.12,3.12,0,0,1-1-.17,2.19,2.19,0,0,1-1.36-1.3A2.76,2.76,0,0,1,520,1075a2.52,2.52,0,0,1,.21-1,2.22,2.22,0,0,1,.59-.79,2.72,2.72,0,0,1,.92-.5,3.7,3.7,0,0,1,1.18-.18,7.87,7.87,0,0,1,1.14.11,6.21,6.21,0,0,1,.93.25h0v-.55a3.32,3.32,0,0,0,0-.57,1.51,1.51,0,0,0-.14-.44,1.7,1.7,0,0,0-.69-.66,2.69,2.69,0,0,0-1.28-.26,5.75,5.75,0,0,0-1.12.11,8.34,8.34,0,0,0-1,.31v-1.08a5,5,0,0,1,1-.33,5.93,5.93,0,0,1,.63-.1l.66,0a4,4,0,0,1,2,.42,2.55,2.55,0,0,1,1.09,1.12,2.71,2.71,0,0,1,.18.59,4.9,4.9,0,0,1,.05.7v5.26h-1.08Zm-.07-2.59c-.23-.06-.51-.13-.84-.19a6.83,6.83,0,0,0-1.07-.1,2.07,2.07,0,0,0-1.28.35,1.25,1.25,0,0,0-.47,1.07,1.59,1.59,0,0,0,.12.64,1.23,1.23,0,0,0,.32.45,1.25,1.25,0,0,0,.48.27,1.87,1.87,0,0,0,.59.08,2.43,2.43,0,0,0,.77-.12,3.63,3.63,0,0,0,.63-.28,3.82,3.82,0,0,0,.47-.33c.13-.11.22-.2.28-.26Z" transform="translate(-404.34 -838.63)"/><path class="cls-2" d="M528.89,1077.3v-12h1.29v12Z" transform="translate(-404.34 -838.63)"/><path class="cls-2" d="M536.32,1077.3v-11.1h1.36v11.1Z" transform="translate(-404.34 -838.63)"/><path class="cls-2" d="M541.58,1070.51h0a5.79,5.79,0,0,1,.48-.51,3,3,0,0,1,.58-.41,2.92,2.92,0,0,1,.71-.28,3.25,3.25,0,0,1,.85-.1,3.33,3.33,0,0,1,1,.15,2.12,2.12,0,0,1,.82.48,2.24,2.24,0,0,1,.55.87,3.56,3.56,0,0,1,.21,1.31v5.28h-1.29v-5.07a2.23,2.23,0,0,0-.39-1.47,1.46,1.46,0,0,0-1.15-.45,2.53,2.53,0,0,0-1.29.37,3.46,3.46,0,0,0-1.07,1v5.6h-1.29v-7.88h1Z" transform="translate(-404.34 -838.63)"/><path class="cls-2" d="M550.54,1070.51h0a4.51,4.51,0,0,1,.47-.51,3.1,3.1,0,0,1,.59-.41,2.77,2.77,0,0,1,.71-.28,3.22,3.22,0,0,1,.84-.1,3.29,3.29,0,0,1,1,.15,2.16,2.16,0,0,1,.83.48,2.36,2.36,0,0,1,.55.87,3.8,3.8,0,0,1,.2,1.31v5.28h-1.29v-5.07a2.23,2.23,0,0,0-.39-1.47,1.45,1.45,0,0,0-1.15-.45,2.58,2.58,0,0,0-1.29.37,3.57,3.57,0,0,0-1.07,1v5.6H549.3v-7.88h1Z" transform="translate(-404.34 -838.63)"/><path class="cls-2" d="M565.29,1073.37a5.3,5.3,0,0,1-.26,1.69,3.91,3.91,0,0,1-.75,1.31,3.44,3.44,0,0,1-1.18.84,3.81,3.81,0,0,1-1.54.3,4,4,0,0,1-1.58-.3,3.31,3.31,0,0,1-1.17-.84,3.6,3.6,0,0,1-.75-1.31,5.31,5.31,0,0,1-.25-1.69,5.06,5.06,0,0,1,.26-1.7,3.91,3.91,0,0,1,.75-1.31,3.34,3.34,0,0,1,1.18-.85,3.86,3.86,0,0,1,1.55-.3,4,4,0,0,1,1.57.3,3.25,3.25,0,0,1,1.18.85,3.89,3.89,0,0,1,.74,1.31A5.33,5.33,0,0,1,565.29,1073.37Zm-1.34,0a4.3,4.3,0,0,0-.18-1.3,2.91,2.91,0,0,0-.5-1,1.92,1.92,0,0,0-.76-.6,2.3,2.3,0,0,0-1.92,0,1.92,1.92,0,0,0-.76.6,2.73,2.73,0,0,0-.5,1,4.75,4.75,0,0,0,0,2.59,2.73,2.73,0,0,0,.5,1,2.16,2.16,0,0,0,1.73.79,2.17,2.17,0,0,0,1-.2,2.14,2.14,0,0,0,.75-.59,2.91,2.91,0,0,0,.5-1A4.28,4.28,0,0,0,564,1073.37Z" transform="translate(-404.34 -838.63)"/><path class="cls-2" d="M570,1076c.19-.58.44-1.31.77-2.2l1.58-4.38h1.29l-3,7.88h-1.34l-3-7.88h1.29l1.57,4.38c.31.86.56,1.6.76,2.2Z" transform="translate(-404.34 -838.63)"/><path class="cls-2" d="M579.79,1076.43h0a2.48,2.48,0,0,1-.4.39,2.72,2.72,0,0,1-.55.35,3,3,0,0,1-.69.25,3.44,3.44,0,0,1-.8.09,3.21,3.21,0,0,1-1.05-.17,2.21,2.21,0,0,1-.82-.5,2.26,2.26,0,0,1-.54-.8,3,3,0,0,1-.19-1.07,2.52,2.52,0,0,1,.21-1,2.24,2.24,0,0,1,.6-.79,2.67,2.67,0,0,1,.91-.5,3.76,3.76,0,0,1,1.19-.18,7.6,7.6,0,0,1,1.13.11,6.21,6.21,0,0,1,.93.25h0v-.55a4.78,4.78,0,0,0,0-.57,1.52,1.52,0,0,0-.15-.44,1.73,1.73,0,0,0-.68-.66,2.74,2.74,0,0,0-1.28-.26,5.78,5.78,0,0,0-1.13.11,8.34,8.34,0,0,0-1.05.31v-1.08l.47-.18a4.74,4.74,0,0,1,.57-.15,5.93,5.93,0,0,1,.63-.1c.22,0,.44,0,.67,0a4,4,0,0,1,2,.42,2.5,2.5,0,0,1,1.09,1.12,2.71,2.71,0,0,1,.18.59,3.78,3.78,0,0,1,0,.7v5.26h-1.07Zm-.06-2.59c-.24-.06-.52-.13-.85-.19a6.83,6.83,0,0,0-1.07-.1,2.11,2.11,0,0,0-1.28.35,1.25,1.25,0,0,0-.46,1.07,1.79,1.79,0,0,0,.11.64,1.36,1.36,0,0,0,.32.45,1.42,1.42,0,0,0,.48.27,1.87,1.87,0,0,0,.59.08,2.39,2.39,0,0,0,.77-.12,3.06,3.06,0,0,0,.63-.28,3.18,3.18,0,0,0,.47-.33l.29-.26Z" transform="translate(-404.34 -838.63)"/><path class="cls-2" d="M587.66,1077.32a3.35,3.35,0,0,1-.5.12,6,6,0,0,1-.82.07,3.52,3.52,0,0,1-1.08-.15,2.27,2.27,0,0,1-.76-.44,1.84,1.84,0,0,1-.45-.7,2.57,2.57,0,0,1-.15-.9v-4.8h-1.52v-1.1h1.52v-2.16h1.29v2.16h2.36v1.1h-2.36v4.6a1.7,1.7,0,0,0,.08.51,1,1,0,0,0,.25.4,1.15,1.15,0,0,0,.43.26,1.76,1.76,0,0,0,.64.1,3.65,3.65,0,0,0,.55,0c.19,0,.36-.07.52-.11Z" transform="translate(-404.34 -838.63)"/><path class="cls-2" d="M589.46,1067.58v-1.43h1.28v1.43Zm0,9.72v-7.88h1.29v7.88Z" transform="translate(-404.34 -838.63)"/><path class="cls-2" d="M600.38,1073.37a5,5,0,0,1-.27,1.69,3.6,3.6,0,0,1-.75,1.31,3.31,3.31,0,0,1-1.17.84,3.86,3.86,0,0,1-1.55.3,3.92,3.92,0,0,1-1.57-.3,3.44,3.44,0,0,1-1.18-.84,3.73,3.73,0,0,1-.74-1.31,5.3,5.3,0,0,1-.26-1.69,5.05,5.05,0,0,1,.27-1.7,3.91,3.91,0,0,1,.75-1.31,3.25,3.25,0,0,1,1.18-.85,3.86,3.86,0,0,1,1.55-.3,4,4,0,0,1,1.57.3,3.21,3.21,0,0,1,1.17.85,3.73,3.73,0,0,1,.74,1.31A5.32,5.32,0,0,1,600.38,1073.37Zm-1.34,0a4.3,4.3,0,0,0-.18-1.3,2.91,2.91,0,0,0-.5-1,2,2,0,0,0-.76-.6,2.21,2.21,0,0,0-1-.21,2.25,2.25,0,0,0-1,.21,2.07,2.07,0,0,0-.76.6,2.72,2.72,0,0,0-.49,1,4.75,4.75,0,0,0,0,2.59,2.58,2.58,0,0,0,.5,1,2.17,2.17,0,0,0,.76.59,2.23,2.23,0,0,0,1,.2,2.15,2.15,0,0,0,1.72-.79,2.91,2.91,0,0,0,.5-1A4.28,4.28,0,0,0,599,1073.37Z" transform="translate(-404.34 -838.63)"/><path class="cls-2" d="M603.66,1070.51h0a5.79,5.79,0,0,1,.48-.51,3.1,3.1,0,0,1,.59-.41,2.63,2.63,0,0,1,.71-.28,3.12,3.12,0,0,1,.84-.1,3.29,3.29,0,0,1,1,.15,2,2,0,0,1,.82.48,2.26,2.26,0,0,1,.56.87,3.8,3.8,0,0,1,.2,1.31v5.28H607.6v-5.07a2.23,2.23,0,0,0-.39-1.47,1.46,1.46,0,0,0-1.15-.45,2.56,2.56,0,0,0-1.29.37,3.57,3.57,0,0,0-1.07,1v5.6h-1.29v-7.88h1Z" transform="translate(-404.34 -838.63)"/><path class="cls-2" d="M481.46,1025.52l4.52-11.11h1.17l4.53,11.11h-1.47l-1.33-3.34h-4.64l-1.33,3.34Zm5.1-9.38c-.5,1.38-1,2.64-1.42,3.77l-.42,1.05h3.68l-.42-1.05c-.46-1.15-.92-2.41-1.39-3.77Z" transform="translate(-404.34 -838.63)"/><path class="cls-2" d="M506.58,1017.35a1.43,1.43,0,0,0,.2.81,1.58,1.58,0,0,0,.53.53,3.11,3.11,0,0,0,.78.34c.29.09.6.17.92.25s.86.22,1.27.35a4,4,0,0,1,1.12.52,2.79,2.79,0,0,1,.79.88,2.84,2.84,0,0,1,.3,1.39,3.18,3.18,0,0,1-.33,1.49,3,3,0,0,1-.9,1,4.27,4.27,0,0,1-1.37.59,7.21,7.21,0,0,1-1.73.2,6.73,6.73,0,0,1-.88-.06,7.35,7.35,0,0,1-.86-.14,6.17,6.17,0,0,1-.75-.21,2.93,2.93,0,0,1-.52-.23v-1.24a6.16,6.16,0,0,0,.67.28q.38.12.78.21a7,7,0,0,0,.8.13,5.18,5.18,0,0,0,.76,0,6.57,6.57,0,0,0,1.11-.09,2.94,2.94,0,0,0,.93-.34,1.73,1.73,0,0,0,.63-.63,2.07,2.07,0,0,0,.23-1,1.56,1.56,0,0,0-.2-.82,1.67,1.67,0,0,0-.55-.54,3.11,3.11,0,0,0-.78-.34l-.93-.25c-.44-.1-.86-.21-1.27-.34a3.6,3.6,0,0,1-1.1-.52,2.36,2.36,0,0,1-.78-.85,2.68,2.68,0,0,1-.3-1.34,3.1,3.1,0,0,1,.31-1.45,2.86,2.86,0,0,1,.84-1,3.38,3.38,0,0,1,1.22-.59,5.38,5.38,0,0,1,1.47-.19,7.21,7.21,0,0,1,1.65.17,8,8,0,0,1,1.41.44v1.25a10.27,10.27,0,0,0-1.42-.47,7.2,7.2,0,0,0-1.58-.19,3.9,3.9,0,0,0-1.09.14,2.2,2.2,0,0,0-.78.39,1.59,1.59,0,0,0-.45.61A2.07,2.07,0,0,0,506.58,1017.35Z" transform="translate(-404.34 -838.63)"/><path class="cls-2" d="M528.08,1017.35a1.52,1.52,0,0,0,.2.81,1.58,1.58,0,0,0,.53.53,3.28,3.28,0,0,0,.78.34l.92.25c.43.1.86.22,1.27.35a4,4,0,0,1,1.12.52,2.68,2.68,0,0,1,.79.88,2.84,2.84,0,0,1,.3,1.39,3.18,3.18,0,0,1-.33,1.49,3,3,0,0,1-.9,1,4.27,4.27,0,0,1-1.37.59,7.15,7.15,0,0,1-1.73.2,6.73,6.73,0,0,1-.88-.06,7.35,7.35,0,0,1-.86-.14,6.17,6.17,0,0,1-.75-.21,2.93,2.93,0,0,1-.52-.23v-1.24a6.16,6.16,0,0,0,.67.28q.38.12.78.21a7,7,0,0,0,.8.13,5.18,5.18,0,0,0,.76,0,6.57,6.57,0,0,0,1.11-.09,2.94,2.94,0,0,0,.93-.34,1.73,1.73,0,0,0,.63-.63,2.07,2.07,0,0,0,.23-1,1.56,1.56,0,0,0-.2-.82,1.67,1.67,0,0,0-.55-.54,3.11,3.11,0,0,0-.78-.34l-.93-.25c-.44-.1-.86-.21-1.27-.34a3.6,3.6,0,0,1-1.1-.52,2.36,2.36,0,0,1-.78-.85,2.68,2.68,0,0,1-.3-1.34A3.1,3.1,0,0,1,527,1016a2.86,2.86,0,0,1,.84-1,3.38,3.38,0,0,1,1.22-.59,5.38,5.38,0,0,1,1.47-.19,7.21,7.21,0,0,1,1.65.17,8,8,0,0,1,1.41.44v1.25a9.84,9.84,0,0,0-1.42-.47,7.2,7.2,0,0,0-1.58-.19,3.9,3.9,0,0,0-1.09.14,2.07,2.07,0,0,0-.77.39,1.52,1.52,0,0,0-.46.61A2.07,2.07,0,0,0,528.08,1017.35Z" transform="translate(-404.34 -838.63)"/><path class="cls-2" d="M549.85,1024.3h5.7v1.22h-7v-11.11h6.74v1.22h-5.39v3.59h4.79v1.22h-4.79Z" transform="translate(-404.34 -838.63)"/><path class="cls-2" d="M574,1025.52h-1.35v-9.89h-3.72v-1.22h8.78v1.22H574Z" transform="translate(-404.34 -838.63)"/><path class="cls-2" d="M592.63,1017.35a1.52,1.52,0,0,0,.2.81,1.58,1.58,0,0,0,.53.53,3.47,3.47,0,0,0,.78.34l.92.25c.44.1.86.22,1.28.35a4,4,0,0,1,1.11.52,2.68,2.68,0,0,1,.79.88,2.84,2.84,0,0,1,.3,1.39,3.18,3.18,0,0,1-.33,1.49,2.87,2.87,0,0,1-.9,1,4.27,4.27,0,0,1-1.37.59,7.12,7.12,0,0,1-1.72.2,6.77,6.77,0,0,1-.89-.06,7.35,7.35,0,0,1-.86-.14,6,6,0,0,1-.74-.21,3.08,3.08,0,0,1-.53-.23v-1.24a6.37,6.37,0,0,0,.68.28c.25.08.5.15.77.21a7,7,0,0,0,.8.13,5.23,5.23,0,0,0,.77,0,6.53,6.53,0,0,0,1.1-.09,2.85,2.85,0,0,0,.93-.34,1.59,1.59,0,0,0,.63-.63,2,2,0,0,0,.23-1,1.47,1.47,0,0,0-.2-.82,1.74,1.74,0,0,0-.54-.54,3.36,3.36,0,0,0-.79-.34c-.29-.09-.6-.17-.93-.25s-.86-.21-1.27-.34a3.6,3.6,0,0,1-1.1-.52,2.36,2.36,0,0,1-.78-.85,2.68,2.68,0,0,1-.3-1.34,3.23,3.23,0,0,1,.31-1.45,2.86,2.86,0,0,1,.84-1,3.38,3.38,0,0,1,1.22-.59,5.38,5.38,0,0,1,1.47-.19,7.21,7.21,0,0,1,1.65.17,7.53,7.53,0,0,1,1.41.44v1.25a9.84,9.84,0,0,0-1.42-.47,7.2,7.2,0,0,0-1.58-.19,3.9,3.9,0,0,0-1.09.14,2.07,2.07,0,0,0-.77.39,1.52,1.52,0,0,0-.46.61A2.07,2.07,0,0,0,592.63,1017.35Z" transform="translate(-404.34 -838.63)"/><line class="cls-3" x1="64.15" y1="181.34" x2="0.84" y2="181.34"/><line class="cls-3" x1="270.49" y1="181.34" x2="207.18" y2="181.34"/><path class="cls-1" d="M534.42,883.28,531.1,892l-.47,1.23H506.8c-10.95,0-19.86,9.28-19.86,20.68s8.91,20.69,19.86,20.69h8l-3.32,8.68-.17.44-.29.78H506.8c-16.19,0-29.38-13.72-29.38-30.59s13.19-30.59,29.38-30.59Z" transform="translate(-404.34 -838.63)"/><polygon class="cls-2" points="144.93 41.98 140.12 54.56 124.28 95.93 120.5 105.83 120.33 106.27 109.93 106.27 110.09 105.83 113.88 95.93 129.71 54.56 133.5 44.65 134.52 41.98 140.15 41.98 144.93 41.98"/><polygon class="cls-2" points="170.73 23.49 139.06 106.27 128.65 106.27 160.32 23.49 170.73 23.49"/><polygon class="cls-2" points="198.24 0 157.78 106.27 147.38 106.27 188.03 0 198.24 0"/></g></svg>